<svg xmlns="http://www.w3.org/2000/svg" viewBox="0 0 35 35">
  <defs>
    <style>
      .cls-1 {
        fill: #fff;
      }
    </style>
  </defs>
  <g id="play_pause" data-name="play/pause" transform="translate(-660 -404)">
    <path id="Path_1" data-name="Path 1" class="cls-1" d="M36.928,62.151H30.009a3.037,3.037,0,0,1-3.058-3.016V30.2a3.037,3.037,0,0,1,3.058-3.016h6.919A3.037,3.037,0,0,1,39.985,30.2V59.134A3.037,3.037,0,0,1,36.928,62.151Z" transform="translate(633.049 376.849)"/>
    <path id="Path_2" data-name="Path 2" class="cls-1" d="M65.231,62.114H58.312A3.037,3.037,0,0,1,55.254,59.1V30.158a3.037,3.037,0,0,1,3.058-3.016h6.919a3.037,3.037,0,0,1,3.058,3.016V59.1A3.037,3.037,0,0,1,65.231,62.114Z" transform="translate(626.712 376.858)"/>
  </g>
</svg>
