<svg xmlns="http://www.w3.org/2000/svg" viewBox="0 0 28.132 28">
  <defs>
    <style>
      .cls-1 {
        fill: #fff;
      }
    </style>
  </defs>
  <path id="repeat" class="cls-1" d="M953.432,1470.877v8.189a1.4,1.4,0,0,1-1.189,1.189h-8.189a1,1,0,0,1-1.057-.792,1.024,1.024,0,0,1,.264-1.321l2.509-2.51a8.986,8.986,0,0,0-6.339-2.509,7.863,7.863,0,0,0-3.566.792,12.061,12.061,0,0,0-3.038,1.981,8.094,8.094,0,0,0-1.981,3.038,8.716,8.716,0,0,0-.792,3.566,8.274,8.274,0,0,0,.792,3.566,15,15,0,0,0,1.981,3.038,8.093,8.093,0,0,0,3.038,1.981,8.715,8.715,0,0,0,3.566.792,8.847,8.847,0,0,0,4.094-.925,10.8,10.8,0,0,0,3.3-2.641c.132-.132.264-.132.4-.264.132,0,.4,0,.4.132l2.509,2.509a.661.661,0,0,1,0,.793,12.344,12.344,0,0,1-4.887,3.7,13.054,13.054,0,0,1-5.943,1.321,15.2,15.2,0,0,1-5.415-1.057,12.885,12.885,0,0,1-4.491-3.038,14.977,14.977,0,0,1-3.038-4.491,12.785,12.785,0,0,1-1.057-5.415,15.19,15.19,0,0,1,1.057-5.415,12.884,12.884,0,0,1,3.038-4.491,14.976,14.976,0,0,1,4.491-3.038,12.786,12.786,0,0,1,5.415-1.057,13.293,13.293,0,0,1,5.151,1.057,12.535,12.535,0,0,1,4.491,2.906l2.377-2.377a1.024,1.024,0,0,1,1.321-.264C953.3,1470.085,953.432,1470.349,953.432,1470.877Z" transform="translate(-925.3 -1468.5)"/>
</svg>
