<svg xmlns="http://www.w3.org/2000/svg" viewBox="0 0 31.421 28">
  <defs>
    <style>
      .cls-1 {
        fill: #fff;
      }
    </style>
  </defs>
  <path id="shuffle" class="cls-1" d="M1191.356,1475.956a23.887,23.887,0,0,0-2.407,4.815,11.732,11.732,0,0,1-.634-1.267,4.4,4.4,0,0,0-.76-1.14,7.232,7.232,0,0,0-.887-1.013,2.446,2.446,0,0,0-1.14-.634,4.556,4.556,0,0,0-1.394-.253h-3.928a.448.448,0,0,1-.507-.507v-3.421a.448.448,0,0,1,.507-.507h3.928A8.812,8.812,0,0,1,1191.356,1475.956Zm19.765,14.063a.466.466,0,0,1-.127.38l-5.575,5.575a.508.508,0,0,1-.887-.38v-3.421h-4.181a3.9,3.9,0,0,1-1.267-.127c-.253,0-.634-.127-1.14-.127a1.768,1.768,0,0,1-1.14-.38,7.471,7.471,0,0,1-1.014-.507,3.055,3.055,0,0,1-1.014-.76,7.213,7.213,0,0,0-1.014-.887,11.125,11.125,0,0,1-1.014-1.267,41.8,41.8,0,0,0,2.407-4.814,11.639,11.639,0,0,1,.633,1.267,4.413,4.413,0,0,0,.76,1.14,7.255,7.255,0,0,0,.887,1.013,2.446,2.446,0,0,0,1.14.634,4.555,4.555,0,0,0,1.394.254h4.434v-3.421a.539.539,0,0,1,.887-.38l5.574,5.575C1210.994,1489.766,1211.121,1489.892,1211.121,1490.019Zm0-15.71a.465.465,0,0,1-.127.38l-5.575,5.575a.508.508,0,0,1-.887-.38v-3.421H1200.1a6.359,6.359,0,0,0-1.52.253,2.627,2.627,0,0,0-1.267.76,6.942,6.942,0,0,0-.887,1.14,6.865,6.865,0,0,0-.76,1.394c-.38.76-.887,1.774-1.394,3.041-.38.76-.633,1.394-.887,1.9s-.507,1.14-.887,1.9a10.77,10.77,0,0,1-1.14,1.774,6.634,6.634,0,0,1-1.267,1.394,5.96,5.96,0,0,1-1.52,1.14,14.776,14.776,0,0,1-1.9.76,6.645,6.645,0,0,1-2.281.253h-3.927a.448.448,0,0,1-.507-.507v-3.421a.448.448,0,0,1,.507-.507h3.927a6.351,6.351,0,0,0,1.52-.253,2.628,2.628,0,0,0,1.267-.76,6.968,6.968,0,0,0,.887-1.14,6.878,6.878,0,0,0,.76-1.394c.38-.76.887-1.774,1.394-3.041.38-.76.634-1.394.887-1.9s.507-1.14.887-1.9a10.8,10.8,0,0,1,1.14-1.774,6.639,6.639,0,0,1,1.267-1.393,5.955,5.955,0,0,1,1.52-1.14,14.733,14.733,0,0,1,1.9-.76,6.648,6.648,0,0,1,2.281-.253h4.434v-3.421a.539.539,0,0,1,.887-.38l5.575,5.575C1210.994,1474.055,1211.121,1474.182,1211.121,1474.309Z" transform="translate(-1179.7 -1468.101)"/>
</svg>
